<svg width="30" height="31" viewBox="0 0 30 31" fill="none" xmlns="http://www.w3.org/2000/svg">
<path d="M8.7 0.961914H21.3C26.1 0.961914 30 4.86191 30 9.66191V22.2619C30 24.5693 29.0834 26.7822 27.4518 28.4137C25.8203 30.0453 23.6074 30.9619 21.3 30.9619H8.7C3.9 30.9619 0 27.0619 0 22.2619V9.66191C0 7.35453 0.916605 5.14165 2.54817 3.51009C4.17974 1.87852 6.39262 0.961914 8.7 0.961914ZM8.4 3.96191C6.96783 3.96191 5.59432 4.53084 4.58162 5.54354C3.56893 6.55623 3 7.92974 3 9.36191V22.5619C3 25.5469 5.415 27.9619 8.4 27.9619H21.6C23.0322 27.9619 24.4057 27.393 25.4184 26.3803C26.4311 25.3676 27 23.9941 27 22.5619V9.36191C27 6.37691 24.585 3.96191 21.6 3.96191H8.4ZM22.875 6.21191C23.3723 6.21191 23.8492 6.40946 24.2008 6.76109C24.5525 7.11272 24.75 7.58963 24.75 8.08691C24.75 8.5842 24.5525 9.06111 24.2008 9.41274C23.8492 9.76437 23.3723 9.96191 22.875 9.96191C22.3777 9.96191 21.9008 9.76437 21.5492 9.41274C21.1975 9.06111 21 8.5842 21 8.08691C21 7.58963 21.1975 7.11272 21.5492 6.76109C21.9008 6.40946 22.3777 6.21191 22.875 6.21191ZM15 8.46191C16.9891 8.46191 18.8968 9.25209 20.3033 10.6586C21.7098 12.0651 22.5 13.9728 22.5 15.9619C22.5 17.951 21.7098 19.8587 20.3033 21.2652C18.8968 22.6717 16.9891 23.4619 15 23.4619C13.0109 23.4619 11.1032 22.6717 9.6967 21.2652C8.29018 19.8587 7.5 17.951 7.5 15.9619C7.5 13.9728 8.29018 12.0651 9.6967 10.6586C11.1032 9.25209 13.0109 8.46191 15 8.46191ZM15 11.4619C13.8065 11.4619 12.6619 11.936 11.818 12.7799C10.9741 13.6238 10.5 14.7684 10.5 15.9619C10.5 17.1554 10.9741 18.3 11.818 19.1439C12.6619 19.9878 13.8065 20.4619 15 20.4619C16.1935 20.4619 17.3381 19.9878 18.182 19.1439C19.0259 18.3 19.5 17.1554 19.5 15.9619C19.5 14.7684 19.0259 13.6238 18.182 12.7799C17.3381 11.936 16.1935 11.4619 15 11.4619Z" fill="white"/>
</svg>
