<svg width="30" height="29" viewBox="0 0 30 29" fill="none" xmlns="http://www.w3.org/2000/svg">
<path d="M6.29591 4.07441C6.29549 4.89948 5.96343 5.6906 5.37278 6.27372C4.78213 6.85684 3.98127 7.1842 3.14638 7.18379C2.31149 7.18338 1.51096 6.85522 0.920902 6.27152C0.330841 5.68781 -0.000417051 4.89637 3.94063e-07 4.0713C0.000417839 3.24623 0.332477 2.45511 0.923128 1.87199C1.51378 1.28886 2.31464 0.961502 3.14953 0.961914C3.98442 0.962327 4.78495 1.29048 5.37501 1.87419C5.96507 2.45789 6.29633 3.24934 6.29591 4.07441ZM6.39035 9.48744H0.0944389V28.9619H6.39035V9.48744ZM16.3379 9.48744H10.0735V28.9619H16.2749V18.7425C16.2749 13.0495 23.7828 12.5206 23.7828 18.7425V28.9619H30V16.627C30 7.0298 18.8877 7.38756 16.2749 12.1006L16.3379 9.48744Z" fill="white"/>
</svg>
